<svg width="412" height="276" viewBox="0 0 412 276" fill="none" xmlns="http://www.w3.org/2000/svg">
<g clip-path="url(#clip0_2_35)">
<path d="M73.0178 213.027C72.435 212.044 69.9138 213.096 69.4503 212.205C68.9885 211.316 71.3309 209.963 72.6692 206.871C72.9106 206.314 74.4314 202.8 73.3055 201.716C71.1715 199.661 61.4058 208.141 57.9883 205.366C57.2383 204.757 56.7143 203.541 54.4444 201.567C53.5413 200.782 52.9953 200.427 52.4668 200.559C51.7169 200.746 51.6575 201.75 50.8534 203.722C49.6475 206.68 48.9343 206.502 48.2317 208.862C47.7102 210.614 47.8293 211.633 47.2156 211.831C46.3471 212.112 45.5477 210.253 44.447 210.42C43.3238 210.59 42.6447 212.753 42.4303 214.374C42.0278 217.414 43.1447 219.42 43.7637 221.529C44.4364 223.822 44.8357 227.308 43.2821 232.243L27.9052 275.552C31.3 266.665 41.1294 242.304 45.2597 233.251C46.452 230.638 47.7686 227.987 50.4718 226.941C53.0743 225.934 56.6486 226.535 61.2054 225.438C61.7376 225.31 63.2144 224.934 63.4003 224.066C63.554 223.348 62.6853 222.947 62.8188 222.275C62.9978 221.373 64.706 221.362 66.8052 220.322C68.2854 219.588 69.2076 218.715 70.0006 217.965C70.2397 217.739 73.7936 214.334 73.0178 213.027Z" fill="#F2F2F2"/>
<path d="M12.5204 235.826C11.87 235.829 11.659 237.369 11.0875 237.339C10.5181 237.31 10.5295 235.77 9.39758 234.221C9.19345 233.942 7.90711 232.182 7.04992 232.421C5.42516 232.875 6.7714 240.114 4.42269 240.99C3.90725 241.182 3.15907 241.088 1.53488 241.632C0.888733 241.849 0.557094 242.014 0.469376 242.312C0.344924 242.734 0.820336 243.052 1.55683 244.016C2.66135 245.461 2.36785 245.759 3.32394 246.785C4.0337 247.547 4.56822 247.782 4.48856 248.14C4.37586 248.647 3.23275 248.504 2.99687 249.092C2.75619 249.692 3.62265 250.649 4.35619 251.222C5.73276 252.296 7.03998 252.327 8.25431 252.632C9.57396 252.964 11.4009 253.774 13.3758 255.96L30.2031 276C26.8193 271.77 17.6944 259.919 14.4413 255.28C13.5022 253.941 12.5806 252.531 12.8469 250.902C13.1033 249.335 14.4299 247.755 15.2059 245.203C15.2965 244.904 15.5382 244.072 15.1655 243.73C14.8574 243.447 14.41 243.758 14.1184 243.498C13.7273 243.15 14.2147 242.309 14.3095 240.979C14.3764 240.041 14.2141 239.337 14.0745 238.731C14.0324 238.549 13.3863 235.823 12.5204 235.826Z" fill="#F2F2F2"/>
<path d="M25.4969 238.738L25.105 235.241L25.2841 234.976C26.1126 233.75 26.5349 232.553 26.54 231.416C26.5408 231.236 26.5324 231.055 26.5239 230.871C26.4901 230.142 26.4479 229.235 26.9209 228.178C27.1861 227.588 27.931 226.224 29.051 226.393C29.3525 226.435 29.5805 226.574 29.7537 226.736C29.779 226.695 29.8052 226.655 29.8331 226.611C30.1819 226.079 30.4581 225.851 30.7241 225.631C30.9285 225.463 31.1397 225.289 31.4707 224.877C31.616 224.696 31.7292 224.537 31.8246 224.404C32.1143 224 32.4927 223.519 33.1599 223.527C33.8728 223.561 34.2461 224.151 34.4935 224.541C34.9353 225.236 35.1354 225.738 35.268 226.07C35.3162 226.192 35.3711 226.329 35.399 226.371C35.6287 226.709 37.4961 226.393 38.1996 226.278C39.7799 226.015 41.1473 225.787 41.7106 226.783C42.1144 227.496 41.8145 228.438 40.7925 229.659C40.4741 230.039 40.1354 230.327 39.8348 230.554C40.0839 230.702 40.3069 230.93 40.3973 231.288C40.6101 232.136 39.8812 232.985 38.2317 233.816C37.8221 234.024 37.2706 234.301 36.4978 234.434C36.1338 234.496 35.8061 234.512 35.5257 234.52C35.5197 234.682 35.4817 234.858 35.3829 235.038C35.0932 235.57 34.4902 235.824 33.5814 235.763C32.5814 235.71 31.7579 235.52 31.0316 235.353C30.3973 235.207 29.8508 235.084 29.4218 235.113C28.6262 235.177 28.013 235.813 27.2934 236.639L25.4969 238.738Z" fill="#F2F2F2"/>
<path d="M27.3149 217.917L24.0303 219.183L23.7284 219.077C22.332 218.587 21.0664 218.482 19.9655 218.765C19.7904 218.81 19.6177 218.864 19.4418 218.919C18.7445 219.137 17.8778 219.408 16.7349 219.218C16.0974 219.112 14.5882 218.737 14.4676 217.612C14.4319 217.309 14.5081 217.054 14.621 216.845C14.5754 216.831 14.5295 216.816 14.48 216.8C13.8768 216.598 13.5862 216.388 13.3063 216.187C13.091 216.032 12.8692 215.872 12.3865 215.656C12.1748 215.562 11.9925 215.493 11.8392 215.434C11.3752 215.256 10.8136 215.013 10.6525 214.365C10.5044 213.667 10.98 213.157 11.2946 212.819C11.8558 212.215 12.2903 211.894 12.5785 211.682C12.684 211.604 12.8024 211.517 12.8362 211.479C13.1047 211.171 12.3255 209.446 12.0359 208.794C11.3802 207.333 10.8128 206.069 11.6339 205.272C12.221 204.7 13.2088 204.751 14.6494 205.43C15.0978 205.641 15.4631 205.896 15.7584 206.129C15.839 205.85 16.003 205.577 16.3265 205.399C17.0927 204.978 18.0995 205.467 19.3218 206.851C19.6266 207.195 20.0345 207.658 20.3596 208.371C20.5124 208.707 20.6102 209.021 20.6895 209.29C20.8479 209.254 21.0275 209.246 21.2274 209.296C21.8155 209.441 22.2136 209.96 22.3853 210.854C22.5883 211.834 22.6125 212.679 22.635 213.424C22.6554 214.074 22.6747 214.634 22.8113 215.041C23.0752 215.794 23.8467 216.226 24.8283 216.712L27.3149 217.917Z" fill="#F2F2F2"/>
<path d="M25.4969 207.614L25.105 204.117L25.2841 203.852C26.1126 202.626 26.5349 201.429 26.54 200.293C26.5408 200.112 26.5324 199.931 26.5239 199.747C26.4901 199.018 26.4479 198.111 26.9209 197.054C27.1861 196.465 27.931 195.1 29.051 195.269C29.3525 195.312 29.5805 195.45 29.7537 195.612C29.779 195.572 29.8052 195.531 29.8331 195.487C30.1819 194.955 30.4581 194.727 30.7241 194.508C30.9285 194.339 31.1397 194.165 31.4707 193.753C31.616 193.572 31.7292 193.414 31.8246 193.28C32.1143 192.877 32.4927 192.395 33.1599 192.404C33.8728 192.438 34.2461 193.027 34.4935 193.417C34.9353 194.113 35.1354 194.614 35.268 194.947C35.3162 195.068 35.3711 195.205 35.399 195.247C35.6287 195.585 37.4961 195.269 38.1996 195.154C39.7799 194.891 41.1473 194.663 41.7106 195.659C42.1144 196.372 41.8145 197.314 40.7925 198.535C40.4741 198.915 40.1354 199.204 39.8348 199.43C40.0839 199.579 40.3069 199.806 40.3973 200.164C40.6101 201.012 39.8812 201.861 38.2317 202.692C37.8221 202.9 37.2706 203.177 36.4978 203.31C36.1338 203.373 35.8061 203.388 35.5257 203.396C35.5197 203.558 35.4817 203.734 35.3829 203.915C35.0932 204.447 34.4902 204.7 33.5814 204.639C32.5814 204.587 31.7579 204.396 31.0316 204.229C30.3973 204.084 29.8508 203.96 29.4218 203.989C28.6262 204.053 28.013 204.69 27.2934 205.516L25.4969 207.614Z" fill="#F2F2F2"/>
<path d="M29.0764 275.495L28.3432 275.035L27.4885 275.133C27.475 275.054 27.4285 274.872 27.3584 274.586C26.9758 273.023 25.8095 268.264 24.8365 260.77C24.1574 255.539 23.7731 250.161 23.6937 244.783C23.6143 239.397 23.8694 235.319 24.0738 232.041C24.2284 229.569 24.4159 227.215 24.6 224.922C25.0899 218.796 25.5518 213.009 25.2081 206.603C25.1321 205.173 24.9724 202.196 23.2326 199.028C22.2233 197.191 20.8331 195.56 19.1 194.182L20.1777 192.828C22.0907 194.351 23.6287 196.157 24.7495 198.197C26.6785 201.709 26.8525 204.953 26.9361 206.512C27.2858 213.031 26.8187 218.874 26.3238 225.059C26.1414 227.344 25.9539 229.687 25.8001 232.149C25.5974 235.396 25.3449 239.439 25.4235 244.756C25.5012 250.07 25.8812 255.382 26.551 260.548C27.5121 267.947 28.6617 272.634 29.0392 274.174C29.2402 274.997 29.2824 275.169 29.0764 275.495Z" fill="#F2F2F2"/>
<path d="M15.9277 196.929C15.8567 196.929 15.7849 196.927 15.7123 196.922C14.2393 196.843 12.8753 195.962 11.6574 194.303C11.0864 193.523 10.7942 192.633 10.2114 190.859C10.1211 190.585 9.68186 189.197 9.41497 187.287C9.24012 186.04 9.2621 185.518 9.50956 185.057C9.78406 184.543 10.2283 184.186 10.7283 183.944C10.7064 183.779 10.7241 183.608 10.7959 183.434C11.0907 182.713 11.8744 182.808 12.2984 182.853C12.513 182.88 12.7807 182.916 13.0696 182.901C13.5239 182.879 13.768 182.743 14.138 182.541C14.4919 182.347 14.9319 182.105 15.5848 181.972C16.8719 181.703 17.9505 182.068 18.306 182.188C20.1768 182.811 21.0991 184.265 22.1667 185.948C22.3795 186.286 23.1101 187.515 23.5924 189.201C23.9403 190.416 23.8914 190.957 23.7866 191.359C23.5738 192.184 23.0712 192.657 21.7951 193.701C20.4623 194.793 19.7934 195.34 19.219 195.673C17.8821 196.445 17.0425 196.929 15.9277 196.929Z" fill="#F2F2F2"/>
<path d="M402.445 274.709C402.445 275.029 402.186 275.288 401.866 275.288H0V274.129H401.866C402.186 274.129 402.445 274.389 402.445 274.709Z" fill="#E6E6E6"/>
<path d="M286.432 91.4906C286.432 91.4906 264.8 94.0913 268.449 76.9943C272.098 59.8973 292.787 28.3181 292.787 28.3181L304.527 34.8997L291.048 66.7485L296.851 71.3244L286.432 91.4906Z" fill="#A0616A"/>
<path d="M357.32 70.6764L354.272 95.7372L277.89 95.3633L293.231 68.712L357.32 70.6764Z" fill="#00B0FF"/>
<path d="M311.929 29.6498C316.603 23.1241 316.978 15.3901 312.766 12.3755C308.555 9.36088 301.351 12.2072 296.677 18.733C292.002 25.2588 291.627 32.9928 295.839 36.0074C300.051 39.022 307.254 36.1756 311.929 29.6498Z" fill="#A0616A"/>
<path d="M349.976 166.221V274.982H354.666V166.221H349.976Z" fill="#3F3D56"/>
<path d="M327.466 166.221V274.981H332.156V166.221H327.466Z" fill="#3F3D56"/>
<path d="M201.313 97.7772V274.981H206.003V97.7772H201.313Z" fill="#E6E6E6"/>
<path d="M276.817 166.221V274.981H281.507V166.221H276.817Z" fill="#3F3D56"/>
<path d="M258.87 166.221V274.981H263.56V166.221H258.87Z" fill="#3F3D56"/>
<path d="M345.756 163.877H255.193L237.821 188.51L327.935 193.88L345.756 163.877Z" fill="#3F3D56"/>
<path d="M179.926 79.5993L180.337 61.7355L125.679 65.9381L125.4 78.043L179.926 79.5993Z" fill="#A0616A"/>
<path d="M142.934 63.8038L140.32 70.0908L136.565 70.2106C136.565 70.2106 140.961 71.5562 142.182 79.5411L138.575 80.622C138.575 80.622 135.111 83.8529 128.635 83.5395L111.271 82.0876L111.204 76.0367L123.205 74.6504C123.205 74.6504 125.879 72.8919 112.642 65.6619C112.642 65.6619 108.257 62.9814 112.201 49.7448C112.743 47.9255 114.38 46.6188 116.279 46.5777C117.326 46.5551 118.308 46.9313 118.7 48.2322C119.698 51.5437 118.688 54.8448 121.43 56.9119C124.171 58.979 142.934 63.8038 142.934 63.8038Z" fill="#2F2E41"/>
<path d="M338.978 147.894C338.978 147.894 320.119 179.958 277.445 174.179C267.29 172.804 258.355 166.769 253.265 157.878C243.427 140.693 228.488 110.602 233.331 93.564L161.157 79.7942L155.47 62.2725L233.581 52.1296C240.49 51.2324 247.258 54.591 250.72 60.6349L288.77 127.06L300.113 128.298L338.978 147.894Z" fill="#2F2E41"/>
<path d="M181.351 86.9121L180.323 69.0731L126.181 77.6578L126.876 89.746L181.351 86.9121Z" fill="#A0616A"/>
<path d="M143.207 74.1428L141.108 80.6197L137.375 81.041C137.375 81.041 141.865 82.0288 143.725 89.8895L140.216 91.2571C140.216 91.2571 137.023 94.7561 130.543 94.9645L113.119 94.9137L112.565 88.8878L124.416 86.5409C124.416 86.5409 126.939 84.573 113.163 78.431C113.163 78.431 108.577 76.1118 111.442 62.601C111.836 60.744 113.363 59.3099 115.252 59.1163C116.295 59.0094 117.303 59.3055 117.799 60.5707C119.06 63.7911 118.319 67.1628 121.218 69.0027C124.117 70.8425 143.207 74.1428 143.207 74.1428Z" fill="#2F2E41"/>
<path d="M345.383 142.195C345.383 142.195 329.166 175.671 286.166 173.343C275.933 172.789 266.541 167.492 260.752 159.039C249.563 142.701 232.25 113.909 235.706 96.5367L162.658 88.6159L155.58 71.6084L232.621 55.2164C239.435 53.7665 246.452 56.57 250.389 62.3159L293.662 125.465L305.068 125.787L345.383 142.195Z" fill="#2F2E41"/>
<path d="M295.949 0.832397L292.197 3.64517L311.894 30.8353L315.646 29.8977L295.949 0.832397Z" fill="#3F3D56"/>
<path d="M347.163 61.2113L368.735 60.2737L378.114 102.465C378.114 102.465 358.418 176.535 334.969 173.722C334.969 173.722 320.431 162.94 320.431 159.189C320.431 155.439 300.735 146.063 300.735 146.063L296.045 130.124L310.114 108.56C310.114 108.56 315.742 91.6829 334.5 82.307L347.163 61.2113Z" fill="#00B0FF"/>
<path d="M223.824 94.027H32.0155V98.7149H125.809V274.982H130.499V98.7149H223.824V94.027Z" fill="#E6E6E6"/>
<path d="M358.418 57.4609C372.404 57.4609 383.742 46.127 383.742 32.146C383.742 18.1649 372.404 6.83105 358.418 6.83105C344.431 6.83105 333.093 18.1649 333.093 32.146C333.093 46.127 344.431 57.4609 358.418 57.4609Z" fill="#A0616A"/>
<path d="M270.119 64.4928L252.431 71.5247L287.135 117.467L299.328 108.091L270.119 64.4928Z" fill="#E6E6E6"/>
<path d="M339.19 152.626C339.19 152.626 332.624 173.393 318.555 163.01C304.486 152.626 284.261 120.748 284.261 120.748L295.107 112.779L318.555 138.204L325.121 134.812L339.19 152.626Z" fill="#A0616A"/>
<path d="M349.507 79.4943L371.08 92.6205L339.19 162.002L318.555 133.874L349.507 79.4943Z" fill="#00B0FF"/>
<path d="M292.527 121.145C297.014 118.556 297.396 110.822 293.381 103.872C289.367 96.9207 282.476 93.3848 277.989 95.9739C273.503 98.563 273.121 106.297 277.136 113.247C281.15 120.198 288.041 123.734 292.527 121.145Z" fill="#A0616A"/>
<path d="M361.187 108.792C367.686 87.493 374.661 80.7526 381.994 84.9727C387.576 88.1848 389.256 95.4964 385.985 101.042C377.647 115.178 360.466 147.567 364.045 169.034C364.045 169.034 369.673 199.037 324.652 199.037C279.631 199.037 236.486 188.724 236.486 188.724L259.934 184.973L313.259 188.781C325.442 189.651 335.71 179.23 334.083 167.129C334.029 166.73 333.965 166.326 333.891 165.917C331.218 151.22 361.187 108.792 361.187 108.792Z" fill="#3F3D56"/>
<path d="M348.926 21.6519C346.857 27.4422 351.403 33.4547 357.54 33.0457L357.686 33.036C361.812 38.191 361.926 45.4832 357.963 50.7646C357.638 57.5716 358.705 64.3734 361.098 70.7543L367.824 88.6823L378.178 83.8523L383.091 96.9622L412 82.0753L394.479 42.6687L389.133 21.2896C385.329 6.07928 369.808 -3.07606 354.649 0.948942L343.019 4.037C333.831 6.47664 328.543 16.0927 331.406 25.1547L348.926 21.6519Z" fill="#2F2E41"/>
</g>
<defs>
<clipPath id="clip0_2_35">
<rect width="412" height="276" fill="white"/>
</clipPath>
</defs>
</svg>
